<?xml version="1.0" encoding="utf-8"?>
<!-- Generator: Adobe Illustrator 25.0.0, SVG Export Plug-In . SVG Version: 6.00 Build 0)  -->
<svg version="1.1" id="图层_1" xmlns="http://www.w3.org/2000/svg" xmlns:xlink="http://www.w3.org/1999/xlink" x="0px" y="0px"
	 viewBox="0 0 64 64" style="enable-background:new 0 0 64 64;" xml:space="preserve">
<style type="text/css">
	.st0{fill-rule:evenodd;clip-rule:evenodd;fill-opacity:0.85;}
</style>
<path class="st0" d="M49.9,20.8c-1,3.8-2.1,7.7-3.1,11.5c-0.4,1.9-1,3.8-1.6,5.7c-0.6,1.9-1.3,3.8-2.2,5.5c-1,1.8-2.4,3.1-4.3,4
	c-0.7,0.3-1.5,0.6-2.4,0.7c-1.2,0.3-2.4,0.3-3.5,0.4C30,49,23.8,49,20.8,49l1.8-6.6c1.3,0,2.7,0,4,0c1.3,0,2.8-0.1,4-0.4
	c1.5-0.3,2.5-0.9,3.4-2.1c0.9-1,1.5-2.4,1.9-3.5c0.9-2.2,1.8-5.5,2.4-7.7c0.7-2.7,1.3-5.2,2.1-7.8L49.9,20.8z M61.9,20.8L56.8,40
	h-9.6l5.2-19.2C52.4,20.8,61.9,20.8,61.9,20.8z M30.4,13.6H40c-1,3.7-2.1,7.5-3.1,11.2c-0.7,2.7-1.5,5.2-2.2,7.8
	c-0.3,1.2-0.7,2.2-1.2,3.4c-0.3,0.9-0.7,1.6-1.5,2.4c-0.6,0.4-1.2,0.7-1.8,1c-0.9,0.3-1.8,0.4-2.7,0.4c-1.3,0.1-2.7,0.1-4,0.1
	c-3.1,0-8.5,0-11.6,0c-1,0-2.2,0-3.2,0c-0.7,0-1.6,0-2.4-0.1c-0.6,0-1-0.1-1.6-0.1c-0.3,0-0.7-0.1-1-0.3c-1-0.4-1.6-1.5-1.6-2.7
	c0-0.7,0.1-1.3,0.3-1.9C2.5,34,2.8,33.1,3,32.2c0.4-1.8,1.3-4.9,1.9-6.6c0.4-1.3,1.2-2.7,2.4-3.4c0.7-0.4,1.5-0.7,2.2-0.9
	c0.7-0.1,1.3-0.3,1.9-0.3c1-0.1,2.1-0.1,3.1-0.1c1.5,0,2.9,0,4.4,0h3.7h3.5l-1.3,4.9c-2.2,0-4.3,0-6.5,0c-0.6,0-1.3,0-1.9,0
	c-0.3,0-0.4,0-0.6,0.1c-0.4,0-0.6,0.1-0.7,0.4c-0.1,0.4-0.3,0.7-0.4,1.2c-0.1,0.6-0.3,1.2-0.4,1.8c-0.3,0.9-0.4,1.9-0.7,2.8
	c-0.1,0.3-0.1,0.7-0.3,1c0,0.3-0.1,0.4-0.1,0.7c0,0.3,0,0.6,0.1,0.9c0.1,0.3,0.4,0.3,0.7,0.3c0.3,0,0.6,0,0.9,0c0.4,0,1,0,1.5,0
	c1.3,0,2.7,0,4.1,0c0.6,0,1.3,0,1.9,0c0.4,0,0.9,0,1.3-0.1c0.3-0.1,0.6-0.1,0.7-0.4c0.3-0.1,0.3-0.4,0.3-0.6c0.1-0.6,0.4-1,0.6-1.6
	c0.6-2.1,1.2-4.1,1.8-6.2l1.6-6.2L30.4,13.6H40H30.4z"/>
</svg>
