<?xml version="1.0" encoding="utf-8"?>
<!-- Generator: Adobe Illustrator 25.0.0, SVG Export Plug-In . SVG Version: 6.00 Build 0)  -->
<svg version="1.1" id="图层_1" xmlns="http://www.w3.org/2000/svg" xmlns:xlink="http://www.w3.org/1999/xlink" x="0px" y="0px"
	 viewBox="0 0 128 128" style="enable-background:new 0 0 128 128;" xml:space="preserve">
<style type="text/css">
	.st0{fill:#FFFFFF;}
</style>
<path class="st0" d="M7.8,104.3c1.5-4.7,3.2-9.3,4.4-13.8c3.7-13.3,7.6-26.7,11-40.2c0.9-3.4,2.5-4.2,5.7-4.2
	c19.2,0.1,38.4,0.1,57.6,0.1c5.9,0,10.1-3.7,9.8-8.7c-0.2-4.9-4.1-8.2-9.8-8.2c-9.5,0-19.1,0-29.9,0c4.4,5.2,8.3,9.7,12.9,15
	c-10.8,0-20.6,0-30.6,0c-0.7,0-1.5-0.5-2-0.9C28,31.7,18.9,20.1,9.6,8.4c0.4-0.5,0.7-0.8,1.1-1.3c1.3-0.1,2.6-0.2,3.9-0.2
	c24.9,0,50-0.1,74.9,0c14.9,0.1,27.9,13.8,28.9,28.6c1.2,15.5-10.7,30.4-25.3,32.6c-1.5,0.2-3,0.5-4.6,0.6
	c-12.5,0-24.9,0.2-37.5-0.1c-3.6-0.1-4.9,1.5-5.7,4.4c-2.6,9.4-5,18.9-7.7,28.2c-0.4,1.3-2.3,2.9-3.5,2.9
	C24.9,104.4,15.9,104.3,7.8,104.3z"/>
<path class="st0" d="M56.4,91.2c7.8,0,15.6,0,24.4,0c-5.9-6.7-11.2-12.8-17.3-19.7c7.6,0,14.3,0.1,21,0c2.1,0,4.2-0.8,6.3-0.7
	c1.6,0.1,3.7,0.5,4.8,1.5c4,4.1,7.6,8.5,11.5,12.8c4.1,4.6,8.4,9.1,13.1,14.3c-7.7,0-14.9,0-23.7,0c7.1,7.7,13.3,14.5,19.4,21.2
	c-0.1,0.2-0.2,0.4-0.4,0.6C95.8,111.5,76,101.7,56.2,92C56.3,91.7,56.4,91.4,56.4,91.2z"/>
</svg>
